PathFileType	4	(X/Y/Z)	44_1_tpose_p0_0-220_filt_butterworth.trc
DataRate	CameraRate	NumFrames	NumMarkers	Units	OrigDataRate	OrigDataStartFrame	OrigNumFrames
60.0	60.0	7	27	m	60.0	82	220
Frame#	Time	RHip			RKnee			RAnkle			RBigToe			RSmallToe			RHeel			LHip			LKnee			LAnkle			LBigToe			LSmallToe			LHeel			Neck			Head			Nose			RShoulder			RElbow			RWrist			RThumb			RIndex			RPinky			LShoulder			LElbow			LWrist			LThumb			LIndex			LPinky			
		X1	Y1	Z1	X2	Y2	Z2	X3	Y3	Z3	X4	Y4	Z4	X5	Y5	Z5	X6	Y6	Z6	X7	Y7	Z7	X8	Y8	Z8	X9	Y9	Z9	X10	Y10	Z10	X11	Y11	Z11	X12	Y12	Z12	X13	Y13	Z13	X14	Y14	Z14	X15	Y15	Z15	X16	Y16	Z16	X17	Y17	Z17	X18	Y18	Z18	X19	Y19	Z19	X20	Y20	Z20	X21	Y21	Z21	X22	Y22	Z22	X23	Y23	Z23	X24	Y24	Z24	X25	Y25	Z25	X26	Y26	Z26	X27	Y27	Z27	
82	1.3666666666666667	0.32158051444832686	0.4392265996011685	1.0309872313770776	0.32693097517025543	0.552939468740898	1.4617542088466422	0.30464595919868004	0.6408850557937514	1.8425804710099016	0.2873809717838404	0.43585964888289397	1.8599390898425021	0.35417256076356857	0.4754633549659407	1.8754228315224202	0.29418510304690726	0.7203115291856083	1.8918163752190535	0.12418623669822612	0.45149168736685114	1.033201582350242	0.1178530192367682	0.5526625394556586	1.4491567346923429	0.14260909456883453	0.630006938099738	1.8306556434216954	0.14134669112943557	0.46047612624905343	1.8758493996561911	0.09103668061872532	0.5175110657523729	1.8949026480759663	0.1688706970988983	0.6927003901268265	1.9064940290599626	0.22444867192080778	0.38073874663254437	0.3988858927151737	0.2277778917297263	0.3401110259623405	0.15861701983132834	0.23251175982199224	0.2548887178211049	0.2910839226135575	0.39180538668242537	0.39974670967436693	0.4566478226313015	0.6430558916819757	0.3442830598295461	0.4891528790256104	0.8752531495838226	0.31749103407309687	0.4886339792720642	1.0105018239726933	0.27928551801672913	0.5290235585043901	1.0324337245823747	0.2819579606176129	0.5248619210783799	1.0170552311425367	0.32961453175949096	0.5301373818890339	0.05360119490190131	0.4042643614912861	0.4513285121083689	-0.20529219844122393	0.3897785008498385	0.4688959392928318	-0.45644200710775173	0.37534982493757835	0.49285363590271736	-0.534479540371715	0.3217978060515966	0.507047256143866	-0.5738032891688993	0.35448668862180704	0.5034535002551228	-0.5561114579223544	0.36316218691259883	0.4980550096984447
83	1.3833333333333333	0.3210606598341524	0.4444295458044164	1.0326999654770932	0.32629080737350485	0.5520664757008978	1.4611725017989723	0.3045941199414411	0.6409109820644372	1.8426479667789823	0.28670460908826134	0.43368352119390446	1.8589899546501267	0.3536959692254573	0.4753483180151965	1.8753669709673249	0.2940596165499308	0.7201316102545476	1.8937208319714576	0.12468047612319091	0.45027299574429946	1.0326425489487163	0.11761549763191108	0.5527201499383557	1.4491398163759968	0.14244852925136253	0.6309101845933769	1.8319519455216955	0.13947648164224413	0.45939781976422395	1.8751601752465865	0.0916524893752383	0.5209888602862853	1.8965995288909663	0.16849565636672043	0.6927993482891344	1.907463143445994	0.22440351446397203	0.3804839905705117	0.39852167496796514	0.22779732046897552	0.34007373650915607	0.15862221693872391	0.23239464669643406	0.25501731349438184	0.29095151818937076	0.3917318903051771	0.3999342961166002	0.4559146513702509	0.6413960055521821	0.3418071194303183	0.48916906820179495	0.8735538583895761	0.31274408824289573	0.4865342103647017	1.0092460452427887	0.27804219494469956	0.5291485113862213	1.0309847726529173	0.2798899472455455	0.524983938575703	1.016522693780683	0.3282702681353506	0.5294470834321154	0.05364446849362499	0.40422632961195143	0.4513324122946683	-0.20521391837586006	0.38975264148763733	0.4677939517645566	-0.4582610293985034	0.3749252856890821	0.49401079304600487	-0.5381935844357479	0.3248682895433434	0.5073201472655959	-0.5744956990981039	0.3541102802247088	0.5044448361506385	-0.5578456943339696	0.3690535460953211	0.4984438605417848
84	1.4	0.32068588957126815	0.4441177786464273	1.033103928081935	0.3254283953145225	0.5480598558333926	1.4598375123639933	0.3045582651877102	0.6409506019469045	1.842725797959259	0.28631265077231016	0.43240071391598367	1.8585028309722176	0.3525294458021148	0.4750257540861176	1.87523225264149	0.29396046200740283	0.7201325763675752	1.8976877415852251	0.12462562636281221	0.45022828766594825	1.0322871589021827	0.11743445666125643	0.5527139256066536	1.4490877886382738	0.14241400328676224	0.6315321829405838	1.8331010696942585	0.13805519335348834	0.45873867166274274	1.8750296743455501	0.09172575849731662	0.5227778519477491	1.8964706329734817	0.16843399213905563	0.6930295845642369	1.9073850596532935	0.22430522888239102	0.37999235897715217	0.3984745218405738	0.2281786098063838	0.33880588038114823	0.15870451871209182	0.2322929559636665	0.2553479569988468	0.29079049446611377	0.39166612341764867	0.3998136422751278	0.45487629782534356	0.6401710669192927	0.3383745436809257	0.4891811938201672	0.8731513555010197	0.31045329058662746	0.48469154342758114	1.0074609181008172	0.2728355510017483	0.5284993974971471	1.030389955240202	0.27545986062911887	0.524759453049638	1.0169370164862566	0.3282344975703852	0.5285723793433648	0.053677527618109414	0.4041942358275914	0.4513319419130806	-0.20514190290136414	0.3896665552155511	0.4669452033830972	-0.4588831035436712	0.3746017163105645	0.49439898453652387	-0.536929244105343	0.32122568062858126	0.5075194718100471	-0.575068004856784	0.35362328645514907	0.5049458086453125	-0.5601605390995085	0.3761593680283718	0.49933729960456075
85	1.4166666666666667	0.320629310755716	0.4388625146652431	1.0325323605186356	0.3251438322337196	0.5422686387840386	1.4581135658160613	0.30454993218474197	0.6409755767493012	1.842768187864508	0.28617398883183864	0.43198779246539465	1.8583934122375396	0.35090646053674046	0.4743487512982137	1.8749919167499998	0.2938970106409545	0.7206994695536622	1.9014610593687886	0.124401572671938	0.450369017161845	1.0325456727451334	0.11735164118589611	0.5526368256405763	1.4490163624413392	0.14242882124007297	0.6317559320133527	1.833623340865024	0.13745047270111985	0.45852682489207275	1.8751177570796984	0.091551583936154	0.5234802292020139	1.8949251698001	0.16875081102038902	0.6933448370131827	1.9065303546244095	0.2242171945337797	0.37956693215087045	0.3984925167798148	0.22912619099898132	0.335665752467759	0.15891349847307729	0.23221940949248235	0.25558858383509603	0.29066265737491914	0.3915812929110814	0.3994412768957714	0.4540050141762684	0.6397058699588194	0.3357213494153548	0.48916583678212106	0.8741744473913831	0.31094942994672836	0.483611196880846	1.0062740662373262	0.2645891324432074	0.5265081876468074	1.0303496102229173	0.26909641669604906	0.5236804062378455	1.0173217180456608	0.32774308541780184	0.5275451624579557	0.05368823932878655	0.404168678894362	0.4513253301512904	-0.20509952746536203	0.38955418609327624	0.46657415391139534	-0.45889475425000625	0.3746668819943991	0.49436990357555605	-0.5319191139006524	0.3135969718735475	0.5078125109409296	-0.5753412512362727	0.35329492743575447	0.5050645584893539	-0.5619509441261892	0.380678476682376	0.5004917508206762
86	1.4333333333333331	0.32079329021696035	0.4339228941050586	1.03211917781166	0.325506789905457	0.5379355055138201	1.4569651866286033	0.30456090474632036	0.6409866216792279	1.8427686961570215	0.28615826723760596	0.43206031099503395	1.858424413435365	0.3495096822724011	0.473488092479631	1.8747277492468073	0.29387998115978875	0.7215332251632841	1.902410164284754	0.12416012830855101	0.4504437250704537	1.033064201020653	0.11738549021102045	0.552576396085168	1.449000590238083	0.14244840657521324	0.631702307979017	1.8334260771507265	0.1374260345337044	0.4586052179540139	1.8752103734838315	0.09142122246751233	0.5237408369524664	1.8933634828306745	0.1691206548180293	0.6934558853737363	1.905690108248482	0.22418208066558243	0.3793942096034799	0.398568633454098	0.23037500000410116	0.3315704548286801	0.1591947148190639	0.2321786421645828	0.25571920119441793	0.2906058811533593	0.39150588448842877	0.3990667431276064	0.45359348161844987	0.639719840612662	0.3346540425595863	0.4891305250417001	0.8758996360843964	0.3125893988798172	0.4833085721317755	1.006924493351704	0.25839931182988185	0.5234161049398375	1.0304554791912595	0.26373754601239124	0.5218776323220276	1.016094496734435	0.3244653753564324	0.5267281026621476	0.05367325466847398	0.40413668093858995	0.45131909010876947	-0.20508880689332085	0.3894662429082347	0.46653863504124005	-0.4587104751544667	0.3759014779848711	0.4942954642100345	-0.5262047089780254	0.3067285703271646	0.5082688027202025	-0.5753346979970423	0.3532191115481944	0.5050331054833588	-0.5626970883332051	0.38171836653078983	0.5014204990590692
87	1.45	0.3209637247060369	0.4319181197165871	1.0319912059755976	0.3264817433834844	0.5366290017333263	1.456589609951348	0.3045792706281311	0.6409869394174234	1.8427381151023368	0.286179897066939	0.4322692254931096	1.8584675974659426	0.34878624950808196	0.4728555799764524	1.874567010708052	0.29393581014159265	0.7220151467963971	1.9001504510429026	0.12397708175411278	0.4504767859174365	1.0334658121253462	0.11748523069859512	0.5525704040417337	1.4490582584324625	0.14245829170542854	0.6314072679926925	1.8323555398418134	0.137587824298171	0.4587237671072997	1.8752459366570742	0.09140147744195326	0.5238346729982546	1.8926907318915707	0.16922879398999424	0.692792280357171	1.90502307841702	0.22420959395650397	0.37949308583288355	0.3989439094240798	0.2313230925810135	0.3284744358719508	0.1594118805296048	0.2321603385523105	0.2557796421311629	0.2905954801985362	0.3914857531626199	0.39892352497633243	0.45354402808189087	0.639847320317097	0.3346179333097786	0.4890942139163664	0.8772620871317196	0.31369745021928724	0.4833864007009374	1.0092025597230108	0.2569109213206488	0.5199577135709419	1.0305164019666948	0.2612364114175889	0.5199361167799402	1.0125558748372383	0.3175123899436959	0.5262969378476849	0.05363635515990242	0.40407967111675924	0.4513239498478103	-0.20510951589712292	0.3894366474042969	0.4667078309153093	-0.45847072111715254	0.3789352420411688	0.49433718175238134	-0.5220620033042546	0.30298118962796916	0.5086001746577302	-0.5751930049101	0.3533198797067121	0.5050005857715579	-0.5627114659903174	0.38009468019768966	0.5019370934410906
88	1.4666666666666666	0.32099839908958344	0.43190581805209877	1.0318452773838636	0.32810536846940286	0.537344530462298	1.4563556215132918	0.3045988131057379	0.6409610843367163	1.842676960939519	0.2862052655571667	0.43244904430141645	1.8584938108145468	0.3487334543906533	0.4727108763244846	1.8745583545650506	0.2940125453673013	0.72193396382268	1.8963155487029892	0.12394192034514985	0.4504732320140702	1.0340253931718573	0.11763511097012276	0.5526237199465192	1.4491409555943988	0.1424643868840083	0.6308726417104735	1.8304434688990519	0.13769936473833966	0.4587075854099277	1.8752299157755488	0.09143738219928887	0.5238774046212958	1.8927354147910598	0.16904319764902004	0.6909395551163051	1.904101150994614	0.22429368132228636	0.37982869106090494	0.3998207892207564	0.23169465053335042	0.32719906675864247	0.15949549046913536	0.23215243322929952	0.2557956997652539	0.29060154428520446	0.39143502010342934	0.3987442702134715	0.4536175168052794	0.639925964746724	0.3348243715482394	0.4890636091371606	0.8777981586113281	0.31392432314814545	0.4834790969633628	1.011712224789506	0.2561607535306963	0.5168537274751063	1.030526379299669	0.25983987790245766	0.5183549857771864	1.008169019380192	0.30874647865485993	0.526122837415305	0.053591834222724094	0.40400311278245365	0.45134655059187534	-0.2051638945845064	0.3894975119291956	0.4671880180430711	-0.4582386297398338	0.3829461436775362	0.4944868466243894	-0.520266743857308	0.3018069240730473	0.5084741652920453	-0.5750201137682281	0.3535006542073923	0.5050131905853281	-0.5624383528926449	0.37673310842755003	0.5022021080422677
